<?xml version="1.0" encoding="UTF-8" standalone="no"?>
<svg
   width="1200pt"
   height="1200pt"
   version="1.1"
   viewBox="0 0 1200 1200"
   id="svg10"
   sodipodi:docname="noun-pothole-753-3B6BF9-blue.svg"
   inkscape:version="1.1.2 (0a00cf5339, 2022-02-04)"
   xmlns:inkscape="http://www.inkscape.org/namespaces/inkscape"
   xmlns:sodipodi="http://sodipodi.sourceforge.net/DTD/sodipodi-0.dtd"
   xmlns="http://www.w3.org/2000/svg"
   xmlns:svg="http://www.w3.org/2000/svg">
  <defs
     id="defs14" />
  <sodipodi:namedview
     id="namedview12"
     pagecolor="#ffffff"
     bordercolor="#666666"
     borderopacity="1.0"
     inkscape:pageshadow="2"
     inkscape:pageopacity="0.0"
     inkscape:pagecheckerboard="0"
     inkscape:document-units="pt"
     showgrid="false"
     inkscape:zoom="0.519375"
     inkscape:cx="1110.9507"
     inkscape:cy="895.30686"
     inkscape:window-width="1920"
     inkscape:window-height="1012"
     inkscape:window-x="0"
     inkscape:window-y="32"
     inkscape:window-maximized="1"
     inkscape:current-layer="svg10" />
  <g
     id="g8">
    <path
       d="m0 1089.8h1200v-133.13h-110.75l-22.574 66.469-200 33.324-83.352-100.01-783.32 0.21484z"
       id="path2" />
    <path
       d="m828.35 321.23c0 34.16-27.691 61.848-61.848 61.848s-61.848-27.688-61.848-61.848c0-34.156 27.691-61.848 61.848-61.848s61.848 27.691 61.848 61.848"
       id="path4" />
    <path
       d="m1052.7 486.35-57.469-228.37c-10.633-43.68-40.727-83.438-105.97-91.812l-322.43-39.863-121.09-14.953c-65.051-7.7539-103.91 23.496-125.15 63.238l-111.34 207.52c-34.078 0.17969-98.258 32.207-107.36 106.85l-34.309 277.49 82.355 10.176-10.945 88.57c-13.715 109.2 140.99 127.01 154.3 19.066l10.934-88.559 278.16 34.367 277.48 34.309-10.934 88.559c-13.055 107.98 141.37 128.36 154.95 19.176l10.957-88.57 82.367 10.176 34.309-277.49c8.9648-74.652-45.527-121.37-78.805-129.88zm-722.16 68.137c-4.957 40.5-41.004 69.48-80.34 64.5-39.48-4.7773-67.344-41.641-62.207-82.129 4.9062-40.801 40.922-69.805 80.34-64.586 39.406 4.5508 67.281 41.449 62.207 82.215zm559.75-90.289c-5.3047-29.832-24.938-55.43-60.961-59.867l-137.58-17.062c-33.742-4.1758-60.277 14.258-73.066 43.355l-321.35-39.707 84.875-163.77c10.691-23.41 24.781-39.359 52.969-36.312l222.13 27.492 0.66016 0.070313 222.84 27.539c27.684 3.8516 37.477 22.738 42.504 48.098l42.434 179.5zm146.04 177.55c-5.2578 40.465-41.293 69.395-80.34 64.477-39.77-4.7891-67.691-41.688-62.891-82.199 5.2578-40.754 41.305-69.758 81.035-64.5 39.105 4.5 66.984 41.387 62.195 82.223z"
       id="path6" />
  </g>
  <path
     style="fill:#a0a0a0;stroke:none;stroke-width:1.92539"
     d="m 0,1364.1396 v -88.568 l 141.99759,-0.2348 c 83.16219,-0.1375 137.60988,-0.895 131.40795,-1.8281 -46.90892,-7.058 -80.87479,-40.8921 -86.94965,-86.6123 -1.99022,-14.9786 -1.51412,-21.5328 6.04748,-83.2516 4.5143,-36.8462 7.66256,-67.5382 6.99616,-68.2046 -0.66639,-0.6664 -24.18638,-4.034 -52.26663,-7.4836 -28.08024,-3.4495 -52.161676,-6.5481 -53.514288,-6.8856 -1.891999,-0.4721 2.931993,-44.17833 20.912488,-189.47063 12.85448,-103.87131 24.86458,-194.79979 26.68912,-202.06331 15.06233,-59.96342 69.79876,-110.67872 127.22877,-117.88209 l 11.37168,-1.42633 76.16482,-141.82017 c 41.89065,-78.0011 79.14532,-146.44875 82.78818,-152.1059 3.64284,-5.65715 13.17352,-16.85713 21.1793,-24.88885 24.54332,-24.62289 52.58152,-37.87262 89.27072,-42.18579 22.75542,-2.67511 10.98152,-3.80677 191.95188,18.4496 384.86753,47.33238 444.83033,54.8667 458.83333,57.65246 54.2186,10.78622 91.6906,39.0182 113.9215,85.8302 7.3766,15.53293 16.988,51.49354 61.7418,231.00358 l 26.6827,107.02541 8.7605,3.14141 c 13.1224,4.70552 31.8038,16.40993 44.4319,27.83767 22.6041,20.45557 40.0454,49.46413 48.3168,80.36122 7.709,28.79638 6.5158,44.3258 -19.0111,247.41272 l -22.8701,181.9495 -4.6876,-0.4008 c -2.5783,-0.2204 -27.0723,-3.1066 -54.4311,-6.4138 -27.3589,-3.3072 -50.002,-5.7261 -50.3181,-5.3754 -0.316,0.3507 -4.127,29.3578 -8.4689,64.4601 -9.2781,75.0104 -12.4544,87.4656 -27.7213,108.7026 -17.9824,25.0146 -42.5522,38.0671 -74.833,39.7543 -22.0452,1.1523 -33.594,-1.1351 -53.6566,-10.6272 -33.9309,-16.0535 -55.7307,-51.5811 -55.8021,-90.9422 -0.012,-6.8832 3.4069,-40.2308 7.5987,-74.1056 4.1918,-33.8748 7.0051,-62.1159 6.2518,-62.758 -1.3989,-1.1922 -739.96786,-92.7079 -740.83713,-91.7967 -0.26312,0.2758 -4.09708,29.5268 -8.51993,65.0021 -8.69723,69.7598 -12.34538,85.4525 -23.97293,103.1205 -16.51449,25.0937 -42.05765,41.2265 -71.34006,45.0576 -6.36532,0.8327 157.95768,1.624 365.16219,1.7583 l 376.73546,0.2441 55.9008,67.0825 55.9009,67.0824 133.4286,-22.1517 c 73.3858,-12.1835 133.7549,-22.408 134.1536,-22.7211 0.3987,-0.3132 7.4426,-20.3154 15.6531,-44.4494 l 14.9282,-43.88 73.3962,-0.5042 73.3963,-0.5043 v 88.5909 88.5909 H 800 0 Z M 1325.1119,934.38394 c 36.3276,-17.28537 57.3189,-50.5805 57.3189,-90.91598 0,-29.16203 -9.2724,-52.30481 -28.6643,-71.5427 -19.5551,-19.39976 -46.976,-29.33742 -74.6474,-27.05308 -51.3825,4.24174 -89.2274,46.34409 -89.2274,99.26516 0,28.16267 9.8877,52.45955 29.0429,71.36653 20.3763,20.11225 39.4184,27.19647 71.0774,26.44295 18.8155,-0.44781 21.2481,-0.97196 35.0999,-7.56288 z M 367.30524,824.05268 c 17.18466,-4.05164 29.23928,-10.75052 43.71778,-24.29445 40.98091,-38.33564 41.65699,-106.19849 1.44013,-144.55888 -19.20271,-18.31629 -39.89807,-26.49662 -67.13398,-26.5363 -41.70281,-0.0608 -76.30494,24.86569 -90.36195,65.09441 -13.00523,37.21867 -4.02572,78.14435 23.06141,105.10637 23.98826,23.87743 56.2416,32.97752 89.27661,25.18885 z M 1288.0866,630.51706 c 0,-5.69097 -60.3477,-256.5879 -63.7741,-265.1425 -4.9298,-12.30787 -16.9324,-26.32632 -26.8901,-31.40638 -10.9031,-5.56236 -16.4476,-6.43277 -128.8303,-20.22448 -56.6547,-6.95271 -140.698,-17.30644 -186.76298,-23.00829 -336.68034,-41.67374 -314.3809,-39.24653 -327.38295,-35.63441 -10.90449,3.0294 -24.50193,12.72415 -31.23883,22.27278 -10.44467,14.80386 -128.59054,244.36321 -126.03046,244.8792 1.28797,0.2596 66.02408,8.30317 143.85802,17.87462 77.83393,9.57142 172.69603,21.27239 210.80464,26.00213 38.10863,4.72973 70.30028,8.59951 71.53702,8.59951 1.23675,0 5.0601,-4.98195 8.49633,-11.071 16.11038,-28.54775 45.84926,-46.50828 77.23217,-46.64366 11.21764,-0.0483 189.41934,21.53857 206.65904,25.03423 14.9657,3.03453 28.9395,10.42807 40.6607,21.51349 12.8159,12.12074 19.2576,22.57999 25.8457,41.96484 l 4.9048,14.43206 47.0862,6.03643 c 56.045,7.18492 53.8251,6.99845 53.8251,4.52143 z"
     id="path97"
     transform="scale(0.75)" />
  <path
     style="fill:#0000ff;stroke:none;stroke-width:1.92539"
     d="m 0,1364.1396 v -88.568 h 136.70277 c 75.18652,0 136.70277,-0.6614 136.70277,-1.4697 0,-0.8084 -4.54874,-2.5405 -10.10831,-3.8491 -35.52019,-8.3609 -64.21999,-36.7804 -73.63104,-72.9119 -3.60175,-13.828 -3.60114,-31.4699 0.002,-61.3602 8.15469,-67.6456 11.1325,-99.359 9.47518,-100.9097 -0.9848,-0.9216 -24.31779,-4.5212 -51.85088,-7.9992 -27.53309,-3.478 -50.849322,-7.0049 -51.813843,-7.8376 -2.248608,-1.9414 2.659649,-46.49751 22.984083,-208.64455 24.01244,-191.56971 23.1824,-186.84908 37.74818,-214.68111 23.30697,-44.53452 68.47498,-77.51006 114.65251,-83.70368 l 9.97287,-1.33763 32.20418,-60.00641 c 67.5737,-125.91077 120.9802,-224.063 127.40475,-234.14856 8.64626,-13.57333 33.55518,-37.78546 47.40475,-46.07868 21.66558,-12.97349 52.23023,-21.2143 79.18053,-21.3486 14.70017,-0.0733 49.78667,3.97828 274.36548,31.68171 283.46002,34.96686 349.51942,43.5094 365.45272,47.25896 39.7241,9.34819 69.2784,28.00149 89.8867,56.73223 19.9632,27.83153 22.3092,35.40268 70.1007,226.23346 18.1667,72.53911 33.7764,133.66831 34.6884,135.84265 0.9608,2.29097 5.1779,5.11505 10.0286,6.71592 10.3043,3.40072 33.3537,18.26671 45.0771,29.07291 18.9427,17.46073 36.5469,46.45585 45.4835,74.91356 5.8273,18.55632 5.7783,49.00045 -0.1642,101.95074 -5.8728,52.32992 -40.3527,327.73338 -41.1287,328.50938 -0.3495,0.3495 -22.2458,-1.9341 -48.6584,-5.0747 -26.4125,-3.1406 -50.7625,-5.718 -54.111,-5.7277 -7.1932,-0.021 -5.6325,-6.8521 -15.1695,66.3973 -10.56,81.1062 -14.9323,94.4961 -38.7597,118.7003 -18.439,18.7305 -39.251,26.6171 -70.3402,26.6551 -14.7846,0.017 -21.2633,-0.913 -31.0365,-4.4605 -33.3873,-12.1189 -54.9308,-34.183 -64.9093,-66.4776 -5.3594,-17.3454 -4.8641,-34.7553 2.9581,-103.9787 3.7063,-32.8002 6.7388,-60.4652 6.7388,-61.4778 0,-1.0126 -4.1155,-2.284 -9.1456,-2.8254 -5.0301,-0.5414 -74.994,-9.2927 -155.47533,-19.4473 -138.48216,-17.4728 -489.83871,-60.8471 -549.29853,-67.8098 -15.13465,-1.7722 -28.0272,-2.7126 -28.65012,-2.0897 -0.62293,0.6229 -4.01606,23.4747 -7.5403,50.7817 -10.03562,77.7593 -12.85356,92.2791 -21.04739,108.4488 -6.02865,11.897 -22.61863,29.8714 -34.6189,37.508 -11.32138,7.2045 -29.80051,14.4023 -36.9755,14.4023 -4.51833,0 -4.84829,2.5234 -0.40912,3.1288 0.97072,0.1324 167.24499,0.349 369.49837,0.4813 l 367.73342,0.2407 56.17,67.3887 c 30.8934,37.0638 57.1101,67.3757 58.2593,67.3599 4.6045,-0.063 264.9755,-44.0713 266.5677,-45.0553 0.9413,-0.5818 8.4286,-20.5676 16.6384,-44.4128 l 14.927,-43.3551 h 61.082 c 33.5951,0 66.4077,-0.5567 72.9168,-1.237 L 1600,1275.023 v 88.8423 88.8423 H 800 0 Z M 1327.4686,934.05324 c 25.952,-12.83851 45.1936,-35.74549 52.0108,-61.91839 4.288,-16.46307 3.8714,-45.64599 -0.871,-60.99991 -12.5617,-40.67023 -48.8893,-66.97128 -92.5022,-66.97128 -43.5279,0 -80.5607,28.27181 -93.1428,71.10758 -1.8761,6.38723 -3.0717,17.68002 -3.0717,29.01276 0,30.75026 8.0518,50.80972 28.6699,71.4253 21.4289,21.42626 35.8283,26.76812 70.6021,26.19177 22.7456,-0.37697 23.5267,-0.53701 38.3049,-7.84783 z M 361.97919,825.51143 c 0.004,-0.79422 2.96313,-1.50602 6.57781,-1.58178 10.72358,-0.22475 30.65854,-11.3843 44.2372,-24.7639 25.34352,-24.972 35.50591,-61.44012 27.08107,-97.1815 -6.63014,-28.12758 -25.702,-51.91401 -52.07919,-64.9532 l -15.02658,-7.42816 -26.09594,0.0135 c -22.77674,0.0116 -27.50238,0.58037 -37.1535,4.46544 -62.64911,25.21945 -81.51457,111.02606 -35.4918,161.42887 19.7962,21.68021 41.24103,31.27496 70.1354,31.37958 9.79543,0.0354 17.81241,-0.58534 17.81553,-1.37956 z M 1288.0866,628.16968 c 0,-4.87959 -25.1438,-112.10279 -47.9098,-204.3064 -14.1399,-57.26751 -15.6522,-62.05599 -22.8023,-72.20217 -11.1946,-15.88545 -20.7887,-21.07837 -47.0692,-25.4767 -11.9952,-2.00754 -127.0803,-16.62137 -255.74453,-32.47519 -303.34941,-37.37825 -330.21666,-40.52393 -345.92318,-40.50148 -22.93013,0.0328 -39.99638,11.3636 -53.42663,35.47166 -29.04326,52.13427 -113.12301,217.70058 -111.42,219.40357 0.65063,0.65064 0.25689,1.18297 -0.87497,1.18297 -2.29199,0 -6.90049,11.57908 -5.26102,13.21855 0.57296,0.57297 16.82235,2.98114 36.10977,5.35149 19.28739,2.37034 112.72327,13.891 207.63527,25.60148 94.91202,11.71048 175.2546,21.29178 178.53911,21.29178 5.25974,0 7.02188,-1.59388 14.77803,-13.36699 13.0298,-19.77798 27.76624,-31.53979 48.83298,-38.97577 14.77936,-5.21671 37.60023,-4.0707 120.54137,6.05334 101.8375,12.43057 115.4704,14.64331 128.8373,20.9113 23.1017,10.83285 40.6996,32.37112 50.08,61.29354 l 3.2183,9.92266 15.7914,2.19756 c 41.2147,5.73555 70.4331,9.30074 77.8852,9.50348 7.2625,0.19757 8.1829,-0.26347 8.1829,-4.09868 z"
     id="path136"
     transform="scale(0.75)" />
  <path
     style="fill:#0000ff;stroke-width:1.92539"
     d="m 998.29014,505.91241 c -39.41765,-14.07869 -61.66431,-49.34284 -56.38558,-89.37925 3.31834,-25.1679 21.19621,-49.39775 45.41697,-61.55357 12.32485,-6.18554 13.89337,-6.4838 34.09847,-6.4838 19.769,0 22.0126,0.40073 33.6943,6.01827 22.8407,10.98367 37.1904,27.3049 44.3301,50.42055 12.0948,39.15828 -6.9529,80.22027 -45.4273,97.9301 -15.0084,6.90838 -40.9462,8.32691 -55.72696,3.0477 z"
     id="path212"
     transform="scale(0.75)" />
</svg>
